<svg viewBox="0 0 32 32" xml:space="preserve" xmlns="http://www.w3.org/2000/svg" fill-rule="evenodd" clip-rule="evenodd" stroke-linejoin="round" stroke-miterlimit="2"><path d="m28.133 18.282-6.067-5.385a.664.664 0 0 0-.135-.096l-.012-.006a.688.688 0 0 0-.647.004l-.012.007a.697.697 0 0 0-.134.098l-8.834 8.064-3.264-3.31a.692.692 0 0 0-.943-.043L3.867 21.18v-2.073a.941.941 0 0 0-.934-.947.94.94 0 0 0-.933.947v3.786c0 4.18 3.346 7.573 7.467 7.573h13.066c4.121 0 7.467-3.393 7.467-7.573V9.64c0-4.18-3.346-7.573-7.467-7.573H9.467C5.346 2.067 2 5.46 2 9.64a.94.94 0 0 0 .933.947.941.941 0 0 0 .934-.947c0-3.135 2.509-5.68 5.6-5.68h13.066c3.091 0 5.6 2.545 5.6 5.68v8.642Zm-6.526-3.906-8.872 8.098a.692.692 0 0 1-.963-.025L8.49 19.121l-4.622 3.906c.071 3.073 2.552 5.546 5.599 5.546h13.066c3.091 0 5.6-2.545 5.6-5.68v-2.725l-6.526-5.792ZM2 12.48v3.787a.94.94 0 0 0 .933.946.94.94 0 0 0 .934-.946V12.48a.94.94 0 0 0-.934-.946.94.94 0 0 0-.933.946Zm6.067-5.947c-1.159 0-2.1.954-2.1 2.13 0 1.175.941 2.13 2.1 2.13 1.159 0 2.1-.955 2.1-2.13 0-1.176-.941-2.13-2.1-2.13Zm0 1.42c.386 0 .7.318.7.71 0 .392-.314.71-.7.71a.705.705 0 0 1-.7-.71c0-.392.313-.71.7-.71Z" fill="#1d9bf0" class="fill-000000"></path></svg>