<svg viewBox="0 0 128 128" xml:space="preserve" xmlns="http://www.w3.org/2000/svg" enable-background="new 0 0 128 128"><path d="M53 17h64v8H53zM53 60h64v8H53zM53 103h64v8H53zM21 121c7.7 0 14-6.3 14-14s-6.3-14-14-14-14 6.3-14 14 6.3 14 14 14zm0-20c3.3 0 6 2.7 6 6s-2.7 6-6 6-6-2.7-6-6 2.7-6 6-6zM21 78c7.7 0 14-6.3 14-14s-6.3-14-14-14S7 56.3 7 64s6.3 14 14 14zm0-20c3.3 0 6 2.7 6 6s-2.7 6-6 6-6-2.7-6-6 2.7-6 6-6zM21 35c7.7 0 14-6.3 14-14S28.7 7 21 7 7 13.3 7 21s6.3 14 14 14zm0-20c3.3 0 6 2.7 6 6s-2.7 6-6 6-6-2.7-6-6 2.7-6 6-6z" fill="#1d9bf0" class="fill-000000"></path></svg>