<svg viewBox="0 0 48 48" xml:space="preserve" xmlns="http://www.w3.org/2000/svg" enable-background="new 0 0 48 48"><path d="M38.28 26.121H35.221v-8.785a5.235 5.235 0 0 0-5.236-5.235H19.59l1.928 3.41h8.467c1.009 0 1.813.83 1.813 1.825l.006 8.785h-3.016a.753.753 0 0 0-.649 1.136l3.665 6.34.504.871.581 1.017c.282.512 1.008.512 1.307 0l.675-1.18.35-.606 3.717-6.442c.282-.504-.077-1.136-.658-1.136zM26.481 32.49h-8.466a1.823 1.823 0 0 1-1.813-1.826v-8.815h3.01c.58 0 .948-.632.649-1.136l-3.665-6.34-.504-.871-.581-1.017c-.282-.512-1.008-.512-1.307 0l-.675 1.18-.35.606-3.717 6.442c-.282.504.077 1.136.658 1.136H12.779v8.815a5.235 5.235 0 0 0 5.236 5.235H28.41l-1.929-3.41z" fill="#000000" class="fill-4aa0ec"></path></svg>